<svg width="30" height="31" viewBox="0 0 30 31" fill="none" xmlns="http://www.w3.org/2000/svg">
<g clip-path="url(#clip0_199_54)">
<path d="M9.48967 19.5112C14.7307 19.5112 18.9793 15.1435 18.9793 9.7556C18.9793 4.36773 14.7307 0 9.48967 0C4.24867 0 0 4.36773 0 9.7556C0 15.1435 4.24867 19.5112 9.48967 19.5112Z" fill="#185147"/>
<path d="M19.6488 30.9936C25.3622 30.9936 29.9938 26.2322 29.9938 20.3587C29.9938 14.4852 25.3622 9.72375 19.6488 9.72375C13.9353 9.72375 9.30371 14.4852 9.30371 20.3587C9.30371 26.2322 13.9353 30.9936 19.6488 30.9936Z" fill="#DB6638"/>
<path d="M15.0806 1.62488C7.62396 1.62488 1.58057 7.83762 1.58057 15.5032C1.58057 23.1688 7.62396 29.3815 15.0806 29.3815C22.5372 29.3815 28.5806 23.1688 28.5806 15.5032C28.5806 7.83762 22.5372 1.62488 15.0806 1.62488ZM20.3554 10.0041C21.4711 10.0041 22.376 10.9344 22.376 12.0814C22.376 13.2284 21.4711 14.1587 20.3554 14.1587C19.2397 14.1587 18.3347 13.2284 18.3347 12.0814C18.3347 10.9344 19.2397 10.0041 20.3554 10.0041ZM9.81197 10.0041C10.9277 10.0041 11.8326 10.9344 11.8326 12.0814C11.8326 13.2284 10.9277 14.1587 9.81197 14.1587C8.69627 14.1587 7.79131 13.2284 7.79131 12.0814C7.79131 10.9344 8.69627 10.0041 9.81197 10.0041ZM15.0868 25.8132C10.4938 25.8132 6.76238 22.761 6.76238 19.0142C6.76238 18.5681 7.11569 18.2049 7.54957 18.2049C7.98346 18.2049 8.33676 18.5681 8.33676 19.0142C8.33676 21.8689 11.3616 24.1883 15.0868 24.1883C18.812 24.1883 21.8368 21.8689 21.8368 19.0142C21.8368 18.5681 22.1901 18.2049 22.624 18.2049C23.0578 18.2049 23.4111 18.5681 23.4111 19.0142C23.4111 22.761 19.6797 25.8132 15.0868 25.8132Z" fill="#FFC33E"/>
</g>
<defs>
<clipPath id="clip0_199_54">
<rect width="30" height="31" fill="white"/>
</clipPath>
</defs>
</svg>
