<svg width="40" height="40" viewBox="0 0 40 40" fill="none" xmlns="http://www.w3.org/2000/svg">
<path fill-rule="evenodd" clip-rule="evenodd" d="M11.1947 1.5C11.1947 0.671573 10.5231 0 9.69471 0C8.86628 0 8.19471 0.671573 8.19471 1.5V8.0605H1.5C0.671573 8.0605 0 8.73207 0 9.5605C0 10.3889 0.671573 11.0605 1.5 11.0605H8.19471V17.6207C8.19471 18.4491 8.86628 19.1207 9.69471 19.1207C10.5231 19.1207 11.1947 18.4491 11.1947 17.6207V11.0605H17.8889C18.7174 11.0605 19.3889 10.3889 19.3889 9.5605C19.3889 8.73207 18.7174 8.0605 17.8889 8.0605H11.1947V1.5ZM31.3802 3.84421C33.3315 1.89547 36.5187 1.87168 38.4988 3.79109C40.479 5.7105 40.5024 8.84626 38.5511 10.795L35.5978 13.7444L28.4269 6.79361L31.3802 3.84421ZM26.671 8.45779L33.8425 15.4075L13.2693 35.9483L13.2675 35.9466L3.52537 39.9235C2.70184 40.2597 1.8728 39.4563 2.20225 38.6413L6.09947 29.0003L6.09772 28.9986L26.671 8.45779Z" fill="#A33232"/>
</svg>
