<svg width="115" height="200" viewBox="0 0 115 200" fill="none" xmlns="http://www.w3.org/2000/svg">
<path d="M73.9908 190.214C75.1501 155.64 58.4358 150.936 36.2132 164.096C52.653 131.26 40.196 110.188 9.28913 99.2273C39.4308 93.1905 50.0625 76.0223 24.6333 43.4583C54.6927 55.5352 71.7022 41.9795 72.0139 9.1679C79.3775 25.587 96.551 42.0286 113.567 51.4571L113.547 50.022C93.6499 35.6456 78.949 16.943 69.5884 0.616699C66.7344 36.7776 50.5384 50.7023 18.361 38.5085C45.1652 76.7846 31.1899 92.1297 0.906982 98.4603C34.3527 111.943 45.6483 134.857 29.378 171.841C55.048 156.638 72.0586 159.126 70.7346 199.077C85.0711 181.833 99.7135 169.847 114.843 165.051L114.825 163.56C101.059 165.357 85.8747 176.019 74.0401 190.276L73.9908 190.214Z" fill="#DB6638"/>
</svg>
