<svg width="27" height="23" viewBox="0 0 27 23" fill="none" xmlns="http://www.w3.org/2000/svg">
<path fill-rule="evenodd" clip-rule="evenodd" d="M26.9732 7.34636C26.9824 7.29994 26.9913 7.25339 27 7.2067H26.9843C26.9947 7.05468 27 6.90128 27 6.74667C27 3.02059 23.9255 0 20.1329 0C16.9576 0 14.2856 2.11748 13.5 4.99363C12.7144 2.11748 10.0424 0 6.86705 0C3.07448 0 0 3.02059 0 6.74667C0 6.90128 0.00529369 7.05468 0.0157127 7.2067H3.49425e-06C0.373099 12.4203 4.076 16.0237 13.5 23C20.1251 17.6445 24.2799 14.2356 26.1281 10.0393C26.5895 9.23002 26.8862 8.31774 26.9732 7.34636Z" fill="#681111"/>
</svg>
