<svg width="60" height="60" viewBox="0 0 60 60" fill="none" xmlns="http://www.w3.org/2000/svg">
<path fill-rule="evenodd" clip-rule="evenodd" d="M59.9404 19.1644C59.9609 19.0433 59.9807 18.9219 60 18.8001H59.9651C59.9882 18.4035 60 18.0033 60 17.6C60 7.8798 53.1678 0 44.7398 0C37.6836 0 31.7458 5.52386 30 13.0269C28.2542 5.52386 22.3164 0 15.2601 0C6.83218 0 0 7.8798 0 17.6C0 18.0033 0.0117638 18.4035 0.0349171 18.8001H7.765e-06C0.829109 32.4008 9.05778 41.801 30 60C44.7224 46.0291 53.9553 37.1363 58.0624 26.1895C59.0878 24.0783 59.7471 21.6985 59.9404 19.1644Z" fill="#A33232"/>
</svg>
