<svg width="63" height="63" viewBox="0 0 63 63" fill="none" xmlns="http://www.w3.org/2000/svg">
<path fill-rule="evenodd" clip-rule="evenodd" d="M61.28 18.9498C61.28 13.4013 58.9414 8.02993 55.0185 4.72447C52.4033 2.54051 49.2348 1.35999 46.016 1.35999C38.9498 1.35999 34.4485 7.46918 31.28 14.3752C28.2121 7.61675 23.5851 1.35999 16.5441 1.35999C8.11993 1.35999 1.28003 9.23997 1.28003 18.9498C1.28003 19.3629 1.28003 19.7466 1.28003 20.1598C2.10987 33.7653 10.3328 43.1504 31.28 61.36C36.8123 56.1362 42.3697 50.9124 47.5751 45.2459C51.3722 41.114 55.0185 36.6281 57.6589 31.3747C58.8659 28.9842 59.9976 26.4461 60.6765 23.7604C61.0789 22.1667 61.28 20.5435 61.28 18.9498Z" stroke="#A33232" stroke-width="2" stroke-miterlimit="10"/>
</svg>
