<?xml version="1.0" encoding="utf-8"?>
<!-- Generator: Adobe Illustrator 27.5.0, SVG Export Plug-In . SVG Version: 6.00 Build 0)  -->
<svg version="1.1" id="Layer_1" xmlns="http://www.w3.org/2000/svg" xmlns:xlink="http://www.w3.org/1999/xlink" x="0px" y="0px"
	 viewBox="0 0 27 23" style="enable-background:new 0 0 27 23;" xml:space="preserve">
<style type="text/css">
	.st0{fill-rule:evenodd;clip-rule:evenodd;fill:none;stroke:#681111;stroke-width:2;stroke-miterlimit:10;}
</style>
<path class="st0" d="M25.43,7.3c0-1.88-0.93-3.7-2.49-4.82c-1.04-0.74-2.3-1.14-3.58-1.14c-2.81,0-4.6,2.07-5.86,4.41
	c-1.22-2.29-3.06-4.41-5.86-4.41c-3.35,0-6.07,2.67-6.07,5.96c0,0.14,0,0.27,0,0.41c0.33,4.61,3.6,7.79,11.93,13.96
	c2.2-1.77,4.41-3.54,6.48-5.46c1.51-1.4,2.96-2.92,4.01-4.7c0.48-0.81,0.93-1.67,1.2-2.58C25.35,8.39,25.43,7.84,25.43,7.3z"/>
</svg>
