<svg width="57" height="57" viewBox="0 0 57 57" fill="none" xmlns="http://www.w3.org/2000/svg">
<path fill-rule="evenodd" clip-rule="evenodd" d="M54.625 3.39278H38.25C38.25 1.51899 36.7309 0 34.8571 0H22.1428C20.2691 0 18.75 1.51899 18.75 3.39278H2.37499C1.06332 3.39278 0 4.4561 0 5.76777C0 7.07944 1.06332 8.14276 2.375 8.14276H54.625C55.9367 8.14276 57 7.07944 57 5.76777C57 4.4561 55.9367 3.39278 54.625 3.39278ZM3.00004 9.50009H54.0001L49.31 53.1814C49.0769 55.3533 47.2439 57 45.0595 57H11.9406C9.75623 57 7.92323 55.3533 7.69003 53.1814L3.00004 9.50009ZM14.2503 21.8572C14.2503 21.0287 14.9219 20.3571 15.7502 20.3571C16.5787 20.3571 17.2502 21.0287 17.2502 21.8572V45.3214C17.2502 46.1498 16.5787 46.8214 15.7502 46.8214C14.9219 46.8214 14.2503 46.1498 14.2503 45.3214V21.8572ZM41.2502 20.3571C40.4218 20.3571 39.7502 21.0287 39.7502 21.8572V45.3214C39.7502 46.1498 40.4218 46.8214 41.2502 46.8214C42.0787 46.8214 42.7503 46.1498 42.7503 45.3214V21.8572C42.7503 21.0287 42.0787 20.3571 41.2502 20.3571ZM27.0002 21.8572C27.0002 21.0287 27.6718 20.3571 28.5003 20.3571C29.3286 20.3571 30.0002 21.0287 30.0002 21.8572V45.3214C30.0002 46.1498 29.3286 46.8214 28.5003 46.8214C27.6718 46.8214 27.0002 46.1498 27.0002 45.3214V21.8572Z" fill="#A33232"/>
</svg>
